<?xml version="1.0" encoding="utf-8"?>
<!-- Generator: Adobe Illustrator 16.0.0, SVG Export Plug-In . SVG Version: 6.00 Build 0)  -->
<!DOCTYPE svg PUBLIC "-//W3C//DTD SVG 1.1//EN" "http://www.w3.org/Graphics/SVG/1.1/DTD/svg11.dtd">
<svg version="1.1" id="land_of_law" xmlns="http://www.w3.org/2000/svg" xmlns:xlink="http://www.w3.org/1999/xlink" x="0px"
	 y="0px" width="610.811px" height="591.892px" viewBox="0 0 610.811 591.892" enable-background="new 0 0 610.811 591.892"
	 xml:space="preserve">
<g id="law_parts">
	<path d="M187.535,11.154c-6.674,6.744-16.257,4.863-23.625,10.031c-7.893,5.537-12.498,15.713-17.203,23.813
		c-12.425,21.388-25.773,37.203-43.734,54.281c12.734-0.904,20.352,6.279,29.394-3.385c8.525-9.112,16.406-11.148,23.763-19.876
		c12.031-14.274,24.063-28.548,36.094-42.823C201.037,22.739,201.305,15.942,187.535,11.154z"/>
	<path fill="none" stroke="#000000" stroke-width="1.9695" stroke-linejoin="round" d="M291.784,75.652
		c1.656-0.781,3.313-1.562,4.97-2.342c-6.511-9.216-21.183-4.307-29.813-0.656c-10.768,4.555-38.087,3.105-25.84-14.324
		c5.085-7.244,36.225-23.566,26.824-37.238c-8.011-11.653-39.243,0.957-47.953,5.438c-2.219-5.092-4.425-10.189-6.637-15.285
		c-2.848-6.553-16.235,1.124-16.133,8.279c0.189,13.051-15.385,26.018-23.379,35.5c-7.51,8.912-14.804,20.818-23.843,28.227
		c-3.289,2.53-6.72,1-10.558,5.102c-4.433,4.736-8.863,9.473-13.295,14.209c13.157,5.967,28.2,16.078,32.625,30.563
		c8.088-6.357,16.175-12.717,24.264-19.076c4.44-3.49,15.157-1.566,20.226-1.858c23.474-1.479,43.618-12.95,66.086-16.916
		c5.211-0.92,10.313-4.933,14.932-7.425C288.131,85.76,285.894,78.662,291.784,75.652z"/>
	<path d="M233.701,22.502c1.95-0.186,3.907-0.25,5.865-0.191c-8.036-5.799-16.673-12.191-27-12.188
		c2.747,4.935,5.053,10.986,7.406,16.406C224.161,24.34,229.004,22.986,233.701,22.502z"/>
	<path d="M273.973,37.311c-2.953,0.545-6.457,0-9.469,0c3.336-4.418,4.487-9.914,4.031-15.375
		C270.503,27.021,272.593,32.026,273.973,37.311z"/>
	<path fill="none" stroke="#363639" stroke-width="1.9695" stroke-linejoin="round" d="M273.973,37.311
		c-2.953,0.545-6.457,0-9.469,0c3.336-4.418,4.487-9.914,4.031-15.375C270.503,27.021,272.593,32.026,273.973,37.311z"/>
	<path fill="none" d="M296.754,73.311c1.714,8.368-5.26,10.665-11.438,13.969C285.1,77.853,289.181,76.879,296.754,73.311z"/>
	<path fill="none" stroke="#363639" stroke-width="1.9695" stroke-linejoin="round" d="M296.754,73.311
		c1.714,8.368-5.26,10.665-11.438,13.969C285.1,77.853,289.181,76.879,296.754,73.311z"/>
	<path fill="#777F83" d="M154.348,154.311c2.363-4.089,3.486-8.606,4.406-13.219c-16.354,17.594-36.668,34.605-49.688,54.936
		c-11.939,18.643-16.662,42.355-26.116,62.411c-9.738,20.653-22.271,40.336-36.415,58.247c-7.015,8.883-14.585,17.332-22.459,25.453
		c-7.058,7.281-3.135,24.447-3.135,34.264c11.123-20.922,22.244-41.845,33.366-62.768c9.078-17.075,24.29-31.647,34.087-48.746
		c10.664-18.615,14.739-40.225,24.609-58.641C122.947,187.695,141.202,170.824,154.348,154.311z"/>
	<path fill="none" stroke="#000000" stroke-width="1.9695" stroke-linejoin="round" d="M154.348,154.311
		c2.363-4.089,3.486-8.606,4.406-13.219c-16.354,17.594-36.668,34.605-49.688,54.936c-11.939,18.643-16.662,42.355-26.116,62.411
		c-9.738,20.653-22.271,40.336-36.415,58.247c-7.015,8.883-14.585,17.332-22.459,25.453c-7.058,7.281-3.135,24.447-3.135,34.264
		c11.123-20.922,22.244-41.845,33.366-62.768c9.078-17.075,24.29-31.647,34.087-48.746c10.664-18.615,14.739-40.225,24.609-58.641
		C122.947,187.695,141.202,170.824,154.348,154.311z"/>
	<path fill="none" stroke="#000101" stroke-width="3" stroke-linejoin="round" d="M22.441,161.436
		c7.877-3.545,22.122,0.826,24.563-8.906c-5.187,0.145-21.927,4.448-26.063,2.719c-7.67-3.209,5.804-14.577,7.219-15.469
		c9.125-5.753,20.083-5.051,29.81-8.369c17.378-5.926,25.898-26.479,43.277-31.621c25.982-7.688,75.548,25.742,49.107,50.685
		c-21.141,19.94-41.637,40.948-51.428,68.684c-7.592,21.509-16.595,41.751-27.894,61.522
		c-13.612,23.824-31.049,45.049-50.092,64.693c0-31.92,0-63.838,0-95.756c0-21.115,0-42.231,0-63.348
		C20.941,179.724,18.478,166.227,22.441,161.436z"/>
	<path fill="none" stroke="#000000" stroke-width="3" stroke-linecap="round" stroke-linejoin="round" d="M494.005,571.498
		c-7.872-25.162-15.996-51.301-31.143-73.199c-5.842-8.445-13.632-17.573-24.126-19.992c-8.801-2.029-14.587,4.411-24.41,2.923
		c-9.747-1.476-10.274,7.97-18.299,8.067c-9.507,0.115-16.324-5.809-16.582,8.181c-0.211,11.525-15.343,11.804-19.38,21.527
		c-4.333,10.43,5.575,21.288,10.189,29.71c-10.424-0.285-21.416-3.768-31.69-0.453c-15.949,5.145-6.949,15.878,2.979,20.602
		c13.623,6.48,24.451,3.385,38.317,6.518c7.107,1.607,11.411,7.251,19.099,8.328c6.984,0.977,14.118,0.389,21.076-0.494
		c-0.788-1.525-16.002-17.506-11.101-15.865c4.978,1.665,12.193,11.746,13.444,16.711
		C426.174,551.928,475.313,556.54,494.005,571.498C487.533,550.816,476.872,557.787,494.005,571.498z"/>
	<path d="M409.911,480.937c-5.748,3.48-9.316,10.771-17.443,8.251c-11.232-3.482-14.294,15.819-21.363,20.506
		c-18.023,11.947-9.354,23.482-0.853,39.029c-9.548-12.225-43.893-42.258-34.556-59.453c7.743-14.258,26.145,3.143,31.09,11.348
		c-7.942-17.418,13.778-19.629,24.961-14.835C397.296,485.537,404.16,481.953,409.911,480.937z"/>
	<path fill="none" stroke="#000000" stroke-width="3" stroke-linecap="round" stroke-linejoin="round" d="M150.41,38.623
		c-20.14,0.299-40.286,0.528-60.422,1.057c-11.792,0.311-15.557,4.716-17.625,16.24C66.032,91.201,94.6,84.748,118.254,84.748
		C132.677,78.834,143.147,51.135,150.41,38.623z"/>
	<line fill="none" stroke="#000000" stroke-width="3" stroke-linejoin="bevel" x1="103.02" y1="99.232" x2="102.973" y2="85.498"/>
	<line fill="none" stroke="#000000" stroke-width="3" stroke-linejoin="bevel" x1="118.254" y1="85.498" x2="103.02" y2="99.232"/>
	<path fill="none" stroke="#000000" stroke-width="3" stroke-linecap="round" stroke-linejoin="round" d="M531.692,81.279
		c17.845,0.898,31.348-1.967,31.406-22.5c0.023-8.881-4.594-24.301-14.391-27.047c-5.848-1.64-14.625,2.584-20.813,3.234
		c-11.619,1.223-23.303,1.473-34.972,1.842c-16.702,0.531-33.483,0.104-50.191,0.139c-55.699,0.119-111.398,0.24-167.099,0.359
		c-13.846,0.029-35.374,11.905-36.911,28.035c-2.101,22.059,30.354,5.738,38.906,4.125c7.726-1.459,26.882-0.497,17.156,12.75
		C373.759,81.655,452.717,81.342,531.692,81.279z"/>
	<path fill="none" stroke="#363639" stroke-width="3" stroke-linecap="round" stroke-linejoin="round" d="M531.692,81.279
		c16.547,0.833,31.351-3.188,31.406-22.5c0.021-7.561-2.417-16.127-7.248-22.037c-7.872-9.631-18.047-2.818-27.955-1.775
		c-58.271,6.135-118.535,2.052-177.067,2.178c-25.679,0.056-54.18-3.383-79.551,0.519c-13.185,2.028-39.906,17.312-31.69,34.581
		c5.108,10.736,26.006,1,33.485-1.475c8.137-2.69,32.228-2.877,21.713,11.447C373.753,81.655,452.723,81.342,531.692,81.279"/>
	<path d="M68.66,354.936c19.758-27.223,39.615-52.654,50.25-85.125c4.924-15.031,4.37-32.797,9.656-47.158
		c6.157-16.725,21.229-33.524,30.741-48.548c6.784-10.714,13.238-25.013,22.884-33.622c9.939-8.871,22.441-7.008,34.219-11.109
		c13.951-4.859,23.718-16.494,37.925-21.52c16.089-5.689,29.519-12.941,44.669-21.793c-4.586-7.188-11.837,0.219-17.382,3.211
		c-9.018,4.864-16.597,6.25-26.306,9.07c-13.872,4.027-26.351,10.231-40.781,12.469c-6.648,1.031-13.17,1.5-19.89,1.5
		c-10.519,0-12.047,2.066-20.731,8.895c-7.752,6.094-14.026,8.32-14.926,17.496c-0.631,6.443-2.364,12.748-6.417,17.842
		c-12.917,16.227-25.836,32.455-38.754,48.682c-8.533,10.721-11.329,33.225-17.501,45.836
		c-7.691,15.717-15.519,25.557-18.186,42.766C74.974,314.195,71.817,334.564,68.66,354.936z"/>
	<path fill="none" stroke="#363639" stroke-width="1.9695" stroke-linejoin="round" d="M68.66,354.936
		c19.758-27.223,39.615-52.654,50.25-85.125c4.924-15.031,4.37-32.797,9.656-47.158c6.157-16.725,21.229-33.524,30.741-48.548
		c6.784-10.714,13.238-25.013,22.884-33.622c9.939-8.871,22.441-7.008,34.219-11.109c13.951-4.859,23.718-16.494,37.925-21.52
		c16.089-5.689,29.519-12.941,44.669-21.793c-4.586-7.188-11.837,0.219-17.382,3.211c-9.018,4.864-16.597,6.25-26.306,9.07
		c-13.872,4.027-26.351,10.231-40.781,12.469c-6.648,1.031-13.17,1.5-19.89,1.5c-10.519,0-12.047,2.066-20.731,8.895
		c-7.752,6.094-14.026,8.32-14.926,17.496c-0.631,6.443-2.364,12.748-6.417,17.842c-12.917,16.227-25.836,32.455-38.754,48.682
		c-8.533,10.721-11.329,33.225-17.501,45.836c-7.691,15.717-15.519,25.557-18.186,42.766
		C74.974,314.195,71.817,334.564,68.66,354.936z"/>
	<path fill="none" stroke="#000000" stroke-width="3" stroke-linecap="round" stroke-linejoin="round" d="M566.099,517.215
		c-27.85-0.891-55.699-1.781-83.549-2.67c-11.596-0.371-10.192-1.839-16.764-11.205c-5.414-7.714-12.718-16.427-20.813-21.467
		c-10.784-6.714-11.789-0.755-21.891,1.125c-8.104,1.507-14.736-2.486-23.859,0.092c-6.545,1.849-8.2,2.048-13.219,1.5
		c-4.386-0.479-6.691-3.826-11.813-2.25c-7.884,2.426-10.597,10.995-7.406,18.283c-5.807-6.164-13.655-19.445-23.859-16.971
		c-9.879,2.395-11.057,14.165-6.422,21.846c-97.987-7.277-195.666-12.418-293.907-14.438c8.678-45.321,17.354-90.644,26.032-135.965
		c1.381-7.217,12.367-17.201,17.242-23.25c7.456-9.244,13.438-19.453,19.251-29.777c11.121-19.747,18.137-42.382,21.662-64.695
		c3.841-24.305,19.298-42.383,32.522-63.269c8.753-13.822,16.922-33.565,33.29-39.763c7.646-2.896,16.102-2.283,23.813-4.969
		c9.346-3.256,15.181-10.748,23.607-15.27c8.006-4.295,18.838-4.586,26.098-8.828c10.963-6.404,21.926-12.81,32.889-19.215
		c-1.554-1.012-2.593-2.969-4.219-3.844c42.382-0.303,84.769-0.816,127.152-0.85c30.173-0.025,60.346-0.049,90.519-0.074
		c1.301,0,19.23-0.322,19.239,0.211c0.208,11.09,0.419,22.178,0.627,33.268c1.711,90.922,7.163,182.021,17.654,272.398
		C555.016,430.582,559.932,473.951,566.099,517.215z"/>
	<path fill="none" stroke="#000000" stroke-width="3" stroke-linecap="round" stroke-linejoin="round" d="M566.099,517.215
		c-27.85-0.889-55.699-1.779-83.549-2.67c-16.113-0.516-21.278-19.809-32.824-29.244c-7.77-6.352-12.645-7.281-21.521-3.787
		c-9.677,3.809-19.254-1.174-28.98,1.576c-10.453,2.953-42.876-6.316-32.438,17.533c-5.994-6.363-13.157-19.563-23.859-16.971
		c-9.826,2.383-10.931,14.377-6.422,21.846c-97.827-7.266-195.825-12.421-293.907-14.438c4.594-23.994,9.188-47.987,13.783-71.981
		c3.938-20.567,3.826-54.762,16.251-71.876c12.472-17.176,25.916-31.865,35.705-51.142c10.675-21.019,14.12-42.657,19.774-65.169
		c4.794-19.095,16.878-35.015,27.545-51.154c9.546-14.441,16.686-33.987,32.269-43.151c8.814-5.183,19.101-3.944,28.485-7.214
		c9.069-3.158,15.299-10.811,23.607-15.27c8.185-4.393,18.067-4.135,26.098-8.828c10.963-6.404,21.926-12.81,32.889-19.215
		c-1.406-1.282-2.813-2.563-4.219-3.844c56.102-0.398,112.196-0.838,168.297-0.884c21.659-0.018,43.368-0.515,65.021-0.104
		c7.597,0.146,3.949,19.139,4.063,25.227c0.311,16.553,0.671,33.105,1.195,49.654C537.183,276.98,549.039,397.512,566.099,517.215"
		/>
	<path fill="none" stroke="#000000" stroke-width="3" stroke-linecap="round" stroke-linejoin="round" d="M336.505,505.498
		c11.25,14.404,22.5,28.812,33.75,43.217c-88.681-2.43-177.626-10.696-266.386-9.338c-25.706,0.393-51.411,0.786-77.118,1.179
		c-12.824,0.196-16.556-20.507-16.028-29.433c1.427-24.174,17.044-20.252,36.026-19.887c23.302,0.447,46.649,0.477,69.937,1.367
		C190.099,495.414,263.24,500.057,336.505,505.498z"/>
	<path fill="none" stroke="#000000" stroke-width="3" stroke-linecap="round" stroke-linejoin="round" d="M336.505,505.498
		c11.25,14.404,22.5,28.812,33.75,43.217c-66.644-1.825-133.147-6.926-199.788-8.793c-32.494-0.91-64.948-0.57-97.444-0.074
		c-24.123,0.369-57.886,10.54-61.967-21.388c-2.981-23.319,10.708-28.204,30.607-27.387c30.424,1.249,60.898,0.909,91.332,2.186
		C200.899,496.105,268.73,500.465,336.505,505.498"/>
	<path fill="none" stroke="#000000" stroke-width="3" stroke-linecap="round" stroke-linejoin="round" d="M600.599,538.59
		c-2.033-20.35-18.308-21.255-35.109-21.453c-31.072-0.364-62.177-1.929-93.234-2.922c4.793,9.316,7.658,19.885,11.531,29.609
		c1.72,4.318,3.258,9.73,6.196,13.438c3.152,3.977,28.066,2.729,33.519,3.164c18.182,1.459,45.357-1.352,61.09,7.742
		C598.229,576.051,601.146,545.243,600.599,538.59C598.199,514.598,601.299,547.086,600.599,538.59z"/>
	<path d="M328.255,200.152c-29.922,28.863-65.688-10.432-93.563-22.125c11.563-16.986,8.622-31.058,12.539-49.594
		c2.684-12.699,21.192-7.468,29.086-4.123c1.438-4.625,2.876-9.25,4.313-13.875c-18.074-1.891-41.938,4.758-46.545,24.914
		c-2.215,9.689-0.419,19.789-5.114,28.938c-5.377,10.477-15.817,17.006-25.31,23.303c22.59,0.201,40.175,14.934,60.181,23.147
		c23.766,9.757,49.704,9.462,71.352-5.239C333.045,203.842,330.71,201.269,328.255,200.152
		C298.327,229.021,330.71,201.269,328.255,200.152z"/>
	<path fill="#020302" d="M335.286,177.09c-25.875,5.441-14.309-35.426-11.156-47.904c-18.804-1.93-45.177-0.23-53.114,20.492
		c-3.888,10.148-3.816,24.808,3.988,33.18c9.217,9.885,22.602-2.113,31.031-6.797c1.152,9.979,6.807,13.57,15.862,9.336
		C324.76,184.06,339.818,176.073,335.286,177.09z M307.911,146.248c-1.033,8.217,1.781,19.457-5.043,25.853
		c-9.759,9.146-17.834,2.249-19.052-8.603c-0.899-8.01-1.185-22.883,7.962-26.463C298.157,134.539,312.769,135.998,307.911,146.248
		C306.53,157.229,313.22,135.051,307.911,146.248z"/>
	<path d="M428.286,138.654c-1.187-14.104-9.36-11.342-19.5-6.938c16.31,13.236,0.967,33.467-10.5,43.781
		c-4.535-15.359-7.046-31.338-7.5-47.344c-18.185,2.11-23.221,26.723-30.375,41.063c-0.961-11.952,0.653-24.658-3.563-36.141
		c-3.779-10.289-19.872-2.396-26.813-1.172c0.343,6.164,10.368,6.131,13.075,11.25c5.88,11.117,4.646,30.792,6.237,43.219
		c18.264-4.492,22.693-25.24,30.188-39.75c1.5,13.688,3,27.375,4.5,41.063C403.888,183.559,430.454,160.801,428.286,138.654
		C427.003,123.422,430.378,160.018,428.286,138.654z"/>
</g>
</svg>
